<svg xmlns="http://www.w3.org/2000/svg" xmlns:xlink="http://www.w3.org/1999/xlink" width="295" height="284" version="1.1" viewBox="0 0 295 284"><title>Netlify</title><g><g fill="#3FB5A0" transform="translate(149.500000, 142.500000) rotate(-315.000000) translate(-149.500000, -142.500000) translate(45.000000, 38.000000) translate(4.000000, 4.000000)"><path id="Shape" d="M0,0 L200,0 L200,200 L0,200 L0,0 L0,0 Z"/></g><g stroke="#FFF" stroke-width="8" transform="translate(149.500000, 142.500000) rotate(-315.000000) translate(-149.500000, -142.500000) translate(45.000000, 38.000000)"><path id="Shape" d="M209,70 L0,209 L209,70 Z"/><path id="Shape" d="M209,6 L0,93 L209,6 Z"/><path id="Shape" d="M209,180 L0,145 L209,180 Z"/><path id="Shape" d="M88,209 L43,0 L88,209 Z"/><path id="Shape" d="M209,172 L89,0 L209,172 Z"/><path id="Shape" d="M137,0 L57,209 L137,0 Z"/></g><g fill="#FFF" transform="translate(149.500000, 142.500000) rotate(-315.000000) translate(-149.500000, -142.500000) translate(45.000000, 38.000000) translate(43.000000, 33.000000)"><circle id="Oval" cx="14" cy="38" r="14"/><circle id="Oval" cx="77" cy="12" r="12"/><circle id="Oval" cx="116" cy="70" r="12"/><circle id="Oval" cx="35" cy="125" r="16"/></g></g></svg>